# Blender 4.4.0
# www.blender.org
o template_mesh-rv
v 0.361998 -0.443940 0.170742
v 0.295950 0.707023 -0.225839
v 0.294744 0.609899 -0.661637
v -0.079223 0.542993 -0.555275
v 0.387591 0.374152 -0.733363
v 0.438113 -0.092282 0.362539
v 0.291764 -0.525655 -0.578344
v -0.157994 0.469408 -0.524552
v 0.581948 -0.055143 0.148998
v 0.018080 0.629406 -0.342898
v 0.490421 0.890231 0.607428
v 0.249478 0.694996 0.729880
v 0.191125 0.804106 0.509247
v 0.165608 0.713929 -0.270652
v 0.706232 0.695440 0.204872
v 0.502610 0.362928 0.553843
v 0.547383 0.669881 -0.358945
v 0.376413 -0.547926 0.002544
v 0.412479 0.692727 -0.234189
v 0.366545 0.948101 0.462531
v 0.265759 0.887845 0.443121
v 0.538437 0.624333 -0.024373
v 0.715501 0.415880 0.344030
v 0.459486 0.941948 0.500675
v 0.423393 0.785174 0.709786
v 0.131557 0.734355 0.585229
v 0.407328 0.113406 -0.757673
v 0.476989 0.146073 0.489203
v 0.656146 0.190307 0.254603
v 0.723682 0.184349 -0.272860
v 0.377981 -0.278381 0.264306
v 0.491610 -0.271658 0.081260
v 0.362008 -0.148300 -0.710593
v 0.397556 -0.485140 -0.228601
v 0.526586 -0.326864 -0.246981
v 0.296998 -0.370867 -0.642427
v 0.025154 0.618366 -0.293499
v -0.185247 -0.190733 -0.463412
v -0.133848 -0.423314 -0.438142
v -0.207002 0.065824 -0.523356
v -0.209776 0.308140 -0.566688
v -0.006132 -0.642020 -0.391835
v 0.652347 -0.067243 -0.266954
v 0.183345 0.666470 -0.175849
v 0.294115 0.605094 -0.018471
v 0.216700 -0.534824 0.219052
v 0.738882 0.428421 -0.659551
v 0.225360 -0.126248 0.467558
v 0.523663 0.699231 -0.547868
v 0.203035 -0.699665 -0.105445
v 0.249227 -0.628566 0.113705
v 0.698312 0.170444 -0.649699
v 0.215558 0.145016 0.548933
v 0.470605 -0.365354 -0.532791
v 0.208212 -0.335026 0.345318
v 0.380035 -0.550748 -0.466669
v 0.255201 0.570957 0.182617
v 0.600149 -0.106964 -0.610027
v 0.088730 -0.763296 -0.265973
v 0.106251 0.553086 0.399559
v 0.158146 0.409507 0.642349
v -0.083215 0.580157 -0.439108
v -0.095881 0.558183 -0.406615
v 0.562287 0.710915 0.213326
v 0.529458 0.578910 0.608147
v 0.217947 0.532023 0.671494
v 0.230435 0.645961 0.368219
v 0.725219 0.665763 0.481616
v 0.163291 0.595226 0.511030
v 0.634354 -0.056019 -0.046907
v 0.528359 -0.277308 -0.080963
v 0.720281 0.198906 -0.005168
v 0.429786 -0.434393 -0.076928
v 0.784910 0.473187 0.061239
v 0.795300 0.462612 -0.254710
v 0.688202 0.596811 -0.551801
v 0.368195 0.537439 -0.710720
v 0.069695 0.303303 -0.695772
v 0.058985 -0.173504 -0.595596
v 0.069424 0.077543 -0.647648
v 0.086456 -0.392615 -0.549774
v 0.100689 0.588880 -0.676726
v 0.139809 -0.613223 -0.505851
v 0.257991 -0.694128 -0.368291
v 0.300144 -0.635247 -0.178521
v 0.088349 0.479467 -0.700580
v 0.751091 0.606707 -0.202657
v 0.421468 -0.380491 0.037929
v 0.377925 0.664479 0.224445
v -0.157994 0.469408 -0.524552
v 0.025154 0.618366 -0.293499
v -0.185247 -0.190733 -0.463412
v -0.133848 -0.423314 -0.438142
v -0.207002 0.065824 -0.523356
v -0.209776 0.308140 -0.566688
v -0.006132 -0.642020 -0.391835
v 0.183345 0.666470 -0.175849
v 0.294115 0.605094 -0.018471
v 0.216700 -0.534824 0.219052
v 0.225360 -0.126248 0.467558
v 0.203035 -0.699665 -0.105445
v 0.249227 -0.628566 0.113705
v 0.215558 0.145016 0.548933
v 0.208212 -0.335026 0.345318
v 0.255201 0.570957 0.182617
v 0.088730 -0.763296 -0.265973
v 0.106251 0.553086 0.399559
v 0.158146 0.409507 0.642349
v -0.095881 0.558183 -0.406615
v -0.047959 0.339985 -0.406873
v 0.061568 0.453109 -0.305784
v -0.072536 0.216971 -0.438051
v -0.012536 0.441631 -0.391709
v 0.169039 0.448937 -0.147674
v 0.260960 0.437260 0.005123
v 0.247576 0.465994 0.153420
v 0.210529 0.389884 0.262811
v 0.216861 0.267327 0.366310
v 0.198937 0.318479 0.050163
v 0.200464 0.179988 0.096573
v 0.134266 0.306825 -0.143916
v 0.156047 0.164225 -0.138707
v 0.069512 0.310429 -0.278473
v 0.060989 0.158858 -0.267613
v 0.037326 -0.499961 -0.311159
v 0.233481 -0.436548 0.132267
v 0.217896 -0.484198 -0.128883
v 0.241687 -0.488085 0.036178
v 0.118060 -0.526895 -0.249956
v 0.007412 -0.365618 -0.359655
v 0.226870 -0.315900 0.181875
v 0.130907 -0.360335 -0.257069
v 0.226152 -0.339637 -0.131691
v 0.239140 -0.320903 0.025223
v -0.027796 -0.180399 -0.368080
v 0.214600 -0.171161 -0.125267
v 0.228132 -0.140492 0.054082
v 0.225195 -0.117071 0.288185
v 0.101220 -0.189721 -0.251138
v 0.219155 0.078873 0.348995
v 0.222650 0.031288 0.096784
v 0.196663 0.007787 -0.115007
v 0.085809 -0.006948 -0.254142
v -0.057157 0.033750 -0.401574
s 0
f 9 31 32
f 23 28 29
f 29 6 9
f 10 44 14
f 2 44 45
f 46 18 1
f 30 58 52
f 53 6 28
f 61 28 16
f 54 43 35
f 56 35 34
f 1 55 46
f 48 31 6
f 2 22 19
f 27 47 52
f 33 52 58
f 36 58 54
f 7 54 56
f 4 63 62
f 62 37 10
f 16 68 65
f 65 11 25
f 25 66 65
f 65 61 16
f 26 67 69
f 69 57 60
f 12 69 66
f 66 60 61
f 35 70 71
f 71 9 32
f 34 71 73
f 43 72 70
f 70 29 9
f 23 72 74
f 72 75 74
f 47 30 52
f 3 76 77
f 77 47 5
f 40 78 80
f 80 5 27
f 38 80 79
f 79 27 33
f 39 79 81
f 81 33 36
f 42 81 83
f 83 36 7
f 7 84 83
f 83 59 42
f 56 85 84
f 84 50 59
f 86 3 77
f 77 78 86
f 18 51 50
f 18 34 73
f 47 87 75
f 15 75 87
f 17 76 49
f 17 22 87
f 15 22 64
f 15 20 24
f 4 86 8
f 8 78 41
f 15 23 74
f 11 15 24
f 32 73 71
f 88 31 1
f 1 73 88
f 20 64 89
f 13 21 89
f 22 89 64
f 45 57 67
f 31 9 6
f 28 23 16
f 6 29 28
f 44 10 37
f 44 2 14
f 18 46 51
f 58 30 43
f 6 53 48
f 28 61 53
f 43 54 58
f 35 56 54
f 55 1 31
f 31 48 55
f 22 2 45
f 47 27 5
f 52 33 27
f 58 36 33
f 54 7 36
f 63 4 8
f 37 62 63
f 68 16 23
f 11 65 68
f 66 25 12
f 61 65 66
f 67 26 13
f 57 69 67
f 69 12 26
f 60 66 69
f 70 35 43
f 9 71 70
f 71 34 35
f 72 43 30
f 29 70 72
f 72 23 29
f 75 72 30
f 30 47 75
f 76 3 49
f 47 77 76
f 78 40 41
f 5 80 78
f 80 38 40
f 27 79 80
f 79 39 38
f 33 81 79
f 81 42 39
f 36 83 81
f 84 7 56
f 59 83 84
f 85 56 34
f 50 84 85
f 3 86 82
f 78 77 5
f 50 85 18
f 34 18 85
f 87 47 76
f 75 15 74
f 76 17 87
f 22 17 19
f 22 15 87
f 20 15 64
f 86 4 82
f 78 8 86
f 23 15 68
f 15 11 68
f 73 32 88
f 31 88 32
f 73 1 18
f 89 21 20
f 89 67 13
f 89 22 45
f 67 89 45
f 2 19 49
f 2 3 14
f 14 3 10
f 10 4 62
f 4 10 82
f 82 10 3
f 3 2 49
f 49 19 17
f 21 11 20
f 24 20 11
f 11 21 25
f 25 13 12
f 12 13 26
f 13 25 21
f 90 112 95
f 109 110 90
f 91 113 109
f 98 114 97
f 105 115 98
f 107 116 105
f 108 117 107
f 91 114 111
f 115 117 119
f 117 120 119
f 114 119 121
f 119 122 121
f 110 111 123
f 110 124 112
f 121 124 123
f 111 121 123
f 102 126 99
f 106 127 101
f 96 129 106
f 99 131 104
f 126 134 131
f 127 134 128
f 125 132 129
f 127 132 133
f 93 125 96
f 92 130 93
f 100 131 138
f 130 139 132
f 131 137 138
f 132 136 133
f 133 137 134
f 92 144 135
f 94 112 144
f 100 140 103
f 103 118 108
f 112 143 144
f 118 141 120
f 120 142 122
f 122 143 124
f 135 143 139
f 136 141 137
f 136 143 142
f 137 140 138
f 101 128 102
f 112 90 110
f 110 109 113
f 113 91 111
f 114 98 115
f 115 105 116
f 116 107 117
f 117 108 118
f 114 91 97
f 117 115 116
f 120 117 118
f 119 114 115
f 122 119 120
f 111 110 113
f 124 110 123
f 124 121 122
f 121 111 114
f 126 102 128
f 127 106 129
f 129 96 125
f 131 99 126
f 134 126 128
f 134 127 133
f 132 125 130
f 132 127 129
f 125 93 130
f 130 92 135
f 131 100 104
f 139 130 135
f 137 131 134
f 136 132 139
f 137 133 136
f 144 92 94
f 112 94 95
f 140 100 138
f 118 103 140
f 143 112 124
f 141 118 140
f 142 120 141
f 143 122 142
f 143 135 144
f 141 136 142
f 143 136 139
f 140 137 141
f 128 101 127
