# Blender 4.4.0
# www.blender.org
o template_mesh-lv
v -0.322172 -0.706570 -0.124488
v -0.303906 0.651011 -0.217290
v -0.357499 0.649644 -0.207608
v -0.562066 0.673204 -0.065013
v -0.552755 0.659603 0.071648
v -0.129150 0.802746 0.015536
v -0.556711 0.397220 0.447393
v -0.718928 0.390510 0.219002
v -0.468344 -0.219070 -0.143270
v -0.137155 -0.594197 0.345621
v 0.062011 -0.717597 -0.023008
v -0.250582 -0.184061 0.556811
v -0.443331 -0.618679 0.209566
v -0.627121 -0.204563 0.255363
v -0.175315 -0.657152 -0.274400
v -0.299515 -0.215852 -0.297300
v -0.724125 0.387305 -0.065679
v 0.089033 -0.662978 0.128691
v -0.405811 -0.689843 0.058094
v -0.564290 -0.203353 0.039384
v -0.190411 0.747861 0.199387
v -0.146254 0.724544 -0.129777
v -0.077702 0.808794 0.023658
v -0.078621 0.746420 0.282045
v 0.019141 0.879505 -0.131732
v -0.018967 0.886048 0.052268
v -0.038598 0.837657 0.238612
v 0.075268 0.736431 0.252740
v 0.098879 0.818694 -0.046568
v 0.085077 0.705737 -0.145883
v 0.048585 0.611878 0.255487
v 0.148093 0.639519 -0.009096
v -0.354975 0.708362 0.371365
v -0.291062 0.422887 0.589090
v 0.174673 0.696083 0.067182
v -0.707127 0.077340 0.257801
v -0.317983 0.051642 -0.348837
v -0.667386 0.083472 0.005571
v -0.293780 0.093053 0.606143
v -0.396012 -0.475655 -0.133263
v -0.185037 -0.412445 0.461078
v -0.519183 -0.438918 0.232486
v -0.256031 -0.453145 -0.288715
v -0.488708 -0.437594 0.048636
v -0.316662 0.284718 -0.420067
v -0.098204 0.682729 -0.166461
v -0.253101 0.426386 -0.385936
v -0.071825 0.370703 0.568685
v 0.013681 0.524129 0.368976
v -0.450971 0.646535 -0.146418
v -0.318636 -0.656403 0.315117
v -0.492455 -0.203867 0.461544
v -0.483979 0.684397 0.282349
v -0.030613 -0.743811 -0.148887
v -0.180859 -0.853779 -0.076303
v -0.553311 0.084138 0.486105
v -0.398175 -0.445457 0.394138
v 0.043756 -0.545843 0.270809
v 0.006475 -0.113850 0.479467
v -0.016951 0.144743 0.562378
v 0.019037 -0.355042 0.395702
v -0.241844 0.706939 0.340279
v -0.169575 0.568903 0.446225
v -0.204353 0.687741 -0.204189
v -0.201217 0.630366 -0.297468
v -0.545677 0.046416 -0.187200
v -0.591490 0.365584 -0.224719
v -0.066543 -0.748076 0.203043
v -0.011325 -0.828802 0.093452
v -0.242464 -0.808203 0.159414
v -0.200783 0.253138 -0.301760
v -0.043750 0.473920 -0.244031
v -0.152719 0.369401 -0.310686
v -0.100308 0.467108 -0.304823
v 0.060044 0.452497 -0.111670
v 0.060718 0.485365 0.170858
v 0.083925 0.452785 0.035604
v 0.073626 0.266723 0.387152
v 0.047295 0.392066 0.266076
v 0.075764 0.316914 0.089134
v 0.061559 0.184723 0.136791
v 0.014745 0.305732 -0.095829
v 0.034140 0.162182 -0.052562
v -0.059752 0.307909 -0.204215
v -0.077959 0.179816 -0.192105
v 0.088457 -0.496565 -0.039804
v -0.091018 -0.498869 -0.240440
v 0.105953 -0.498703 0.082710
v -0.003675 -0.516309 -0.161244
v 0.093050 -0.450010 0.193173
v -0.115091 -0.343401 -0.241404
v 0.079873 -0.328832 0.234324
v 0.097258 -0.316448 0.077101
v 0.073104 -0.320170 -0.052913
v -0.014827 -0.330402 -0.159175
v -0.155661 -0.140318 -0.250184
v 0.058207 -0.160284 -0.054661
v 0.092675 -0.145240 0.099079
v 0.074897 -0.112053 0.317861
v -0.025550 -0.147491 -0.165075
v 0.074192 0.092471 0.367451
v 0.087314 0.034691 0.134677
v 0.048725 -0.002025 -0.057848
v -0.051173 0.012002 -0.172591
v -0.187250 0.063918 -0.264902
s 0
f 45 47 73
f 47 65 74
f 65 46 72
f 30 32 77
f 32 31 76
f 31 49 79
f 49 48 78
f 30 75 72
f 76 79 80
f 78 81 80
f 75 77 80
f 80 81 83
f 72 84 73
f 71 73 84
f 72 75 82
f 82 83 85
f 18 11 86
f 54 15 87
f 15 43 91
f 58 18 88
f 11 54 89
f 58 90 92
f 86 94 93
f 86 89 95
f 87 91 95
f 88 93 92
f 16 96 91
f 59 61 92
f 91 96 100
f 92 93 98
f 93 94 97
f 94 95 100
f 16 37 105
f 37 45 71
f 48 60 101
f 59 99 101
f 71 85 104
f 78 101 102
f 81 102 103
f 83 103 104
f 96 105 104
f 97 103 102
f 97 100 104
f 98 102 101
f 14 44 42
f 42 19 13
f 2 45 3
f 6 46 22
f 50 17 4
f 38 67 66
f 20 66 9
f 44 9 40
f 19 40 1
f 5 7 53
f 56 8 36
f 52 36 14
f 57 14 42
f 51 42 13
f 39 59 60
f 34 60 48
f 41 58 61
f 12 61 59
f 6 24 23
f 21 63 24
f 34 62 33
f 23 27 26
f 24 28 27
f 24 49 31
f 48 63 34
f 47 64 65
f 65 22 46
f 66 45 37
f 9 37 16
f 40 16 43
f 1 43 15
f 3 67 50
f 10 18 58
f 15 55 1
f 18 69 11
f 13 70 51
f 55 19 1
f 46 26 25
f 25 30 46
f 30 35 32
f 31 35 28
f 4 8 5
f 8 38 36
f 36 20 14
f 7 39 34
f 12 56 52
f 12 57 41
f 10 57 51
f 10 70 68
f 55 68 70
f 11 55 54
f 7 33 53
f 73 71 45
f 74 73 47
f 72 74 65
f 77 75 30
f 76 77 32
f 79 76 31
f 78 79 49
f 72 46 30
f 80 77 76
f 80 79 78
f 80 82 75
f 83 82 80
f 73 74 72
f 84 85 71
f 82 84 72
f 85 84 82
f 86 88 18
f 87 89 54
f 91 87 15
f 88 90 58
f 89 86 11
f 92 61 58
f 93 88 86
f 95 94 86
f 95 89 87
f 92 90 88
f 91 43 16
f 92 99 59
f 100 95 91
f 98 99 92
f 97 98 93
f 100 97 94
f 105 96 16
f 71 105 37
f 101 78 48
f 101 60 59
f 104 105 71
f 102 81 78
f 103 83 81
f 104 85 83
f 104 100 96
f 102 98 97
f 104 103 97
f 101 99 98
f 44 14 20
f 19 42 44
f 45 2 47
f 46 6 23
f 17 50 67
f 67 38 17
f 66 20 38
f 9 44 20
f 40 19 44
f 7 5 8
f 8 56 7
f 36 52 56
f 14 57 52
f 42 51 57
f 59 39 12
f 60 34 39
f 58 41 10
f 61 12 41
f 24 6 21
f 63 21 62
f 62 34 63
f 27 23 24
f 28 24 31
f 49 24 63
f 63 48 49
f 64 47 2
f 22 65 64
f 45 66 67
f 37 9 66
f 16 40 9
f 43 1 40
f 67 3 45
f 18 10 68
f 55 15 54
f 69 18 68
f 70 13 19
f 19 55 70
f 26 46 23
f 30 25 29
f 35 30 29
f 35 31 32
f 8 4 17
f 38 8 17
f 20 36 38
f 39 7 56
f 56 12 39
f 57 12 52
f 57 10 41
f 70 10 51
f 68 55 69
f 55 11 69
f 33 7 34
f 29 26 35
f 26 29 25
f 28 26 27
f 5 50 4
f 53 21 5
f 53 33 21
f 21 33 62
f 6 50 21
f 3 50 22
f 22 50 6
f 2 22 64
f 3 22 2
f 5 21 50
f 35 26 28
