# Blender 4.0.1
# www.blender.org
o template_mesh-myo
v -0.303906 0.651011 -0.217290
v -0.357499 0.649644 -0.207608
v -0.562066 0.673204 -0.065013
v -0.552755 0.659603 0.071648
v -0.129150 0.802746 0.015536
v -0.190411 0.747861 0.199387
v -0.146254 0.724544 -0.129777
v 0.019141 0.879505 -0.131732
v -0.018967 0.886048 0.052268
v -0.038598 0.837657 0.238612
v 0.075268 0.736431 0.252740
v 0.098879 0.818694 -0.046568
v -0.354975 0.708362 0.371365
v 0.174673 0.696083 0.067182
v -0.450971 0.646535 -0.146418
v -0.483979 0.684397 0.282349
v -0.241844 0.706939 0.340279
v -0.204353 0.687741 -0.204189
v 0.295950 0.707023 -0.225839
v 0.294744 0.609899 -0.661637
v -0.079223 0.542993 -0.555275
v 0.018080 0.629406 -0.342898
v 0.490421 0.890231 0.607428
v 0.249478 0.694996 0.729880
v 0.191125 0.804106 0.509247
v 0.165608 0.713929 -0.270652
v 0.547383 0.669881 -0.358945
v 0.412479 0.692727 -0.234189
v 0.366545 0.948101 0.462531
v 0.265759 0.887845 0.443121
v 0.459486 0.941948 0.500675
v 0.423393 0.785174 0.709786
v 0.131557 0.734355 0.585229
v 0.523663 0.699231 -0.547868
v -0.083215 0.580157 -0.439108
v 0.100689 0.588880 -0.676726
v -0.574969 -0.254359 -0.259500
v -0.282263 -0.184194 0.728128
v -0.800739 -0.223096 0.328649
v -0.403132 -0.237924 -0.416535
v -0.776885 -0.244248 -0.029681
v -0.874563 0.071888 0.332639
v -0.418199 0.032675 -0.461138
v -0.859216 0.075443 -0.049381
v -0.339424 0.121181 0.783334
v -0.498277 -0.501953 -0.244628
v -0.224668 -0.451904 0.618633
v -0.677082 -0.452195 0.304457
v -0.353621 -0.481252 -0.402875
v -0.684269 -0.493644 -0.012364
v -0.593616 -0.221594 0.598764
v -0.666123 0.105580 0.624799
v -0.492172 -0.498094 0.536603
v -0.652691 0.017745 -0.295531
v -0.406002 -0.739057 -0.211893
v -0.158339 -0.700264 0.470107
v -0.563328 -0.659970 0.265815
v -0.253653 -0.717060 -0.369145
v -0.541729 -0.773764 0.019329
v -0.403785 -0.752283 0.405875
v -0.061643 -0.886256 -0.199997
v -0.191438 -0.948451 -0.057890
v -0.094048 -0.883719 0.288456
v -0.037387 -0.937853 0.113273
v -0.300531 -0.952515 0.178261
v 0.060418 -0.617081 0.401545
v 0.009831 -0.115732 0.646371
v -0.028824 0.148495 0.720454
v 0.024624 -0.374188 0.565894
v 0.392686 -0.471657 0.201616
v 0.483548 -0.110061 0.421161
v 0.285614 -0.546770 -0.626953
v 0.640513 -0.061587 0.169465
v 0.416358 -0.584114 0.022998
v 0.409882 0.113904 -0.829808
v 0.528216 0.127483 0.552711
v 0.722410 0.188787 0.280621
v 0.800608 0.173856 -0.275956
v 0.418076 -0.290293 0.318611
v 0.548926 -0.279600 0.097489
v 0.356177 -0.149542 -0.787793
v 0.475560 -0.517615 -0.226245
v 0.596007 -0.336097 -0.241812
v 0.295544 -0.377737 -0.714144
v -0.215876 -0.193325 -0.527413
v -0.146436 -0.430229 -0.498698
v -0.226156 0.057764 -0.574024
v -0.007886 -0.667079 -0.445569
v 0.717412 -0.086530 -0.275851
v 0.261051 -0.140339 0.524077
v 0.743732 0.176158 -0.697087
v 0.247132 0.130984 0.613793
v 0.525396 -0.383837 -0.571636
v 0.255645 -0.361127 0.405426
v 0.427732 -0.576617 -0.508701
v 0.652472 -0.106614 -0.649116
v 0.249675 -0.778150 -0.098321
v 0.133095 -0.839407 -0.301487
v 0.298132 0.736445 -0.222901
v -0.109678 0.870929 0.024585
v -0.186358 0.815865 0.235660
v -0.121308 0.785642 -0.157251
v 0.005988 0.662165 -0.338534
v -0.082254 0.870512 0.025912
v -0.071828 0.802958 0.306478
v 0.164853 0.814134 0.483802
v 0.168014 0.738967 -0.257173
v -0.008628 0.905577 -0.189020
v -0.054172 0.914152 0.045034
v -0.048246 0.842026 0.284114
v 0.091876 0.718874 0.296736
v 0.140536 0.822974 -0.072771
v 0.106958 0.734507 -0.163627
v 0.058902 0.613500 0.272879
v 0.193075 0.647651 0.030265
v 0.417792 0.730828 -0.227979
v 0.367383 0.959470 0.432352
v 0.248026 0.904574 0.428483
v 0.549018 0.676747 -0.025417
v 0.111565 0.696289 0.588694
v 0.227327 0.696328 0.052407
v -0.057912 0.755633 -0.194097
v 0.002771 0.654447 -0.293423
v 0.176046 0.702648 -0.178777
v 0.283278 0.659420 -0.009780
v -0.000455 0.591318 0.435816
v 0.190768 0.655939 0.237127
v 0.087872 0.600643 0.440877
v -0.228193 0.770568 0.387179
v -0.160779 0.648247 0.491852
v -0.188252 0.746784 -0.252319
v -0.111624 0.606183 -0.441919
v -0.165601 0.672812 -0.372969
v -0.125892 0.588597 -0.423728
v -0.102571 0.569326 -0.568710
v -0.307705 0.722236 -0.306549
v -0.187341 0.478639 -0.560218
v -0.297287 0.502700 -0.493227
v 0.238106 0.654232 0.744497
v -0.365121 0.753007 0.473412
v -0.368126 0.470374 0.726700
v -0.087456 0.420930 0.705854
v 0.125025 0.430251 0.695081
v -0.410867 0.670986 -0.295967
v -0.674261 0.708827 -0.062545
v -0.663032 0.730922 0.104516
v -0.653631 0.444894 0.553456
v -0.864299 0.438960 0.265350
v -0.877019 0.436720 -0.093309
v -0.411009 0.325079 -0.524054
v -0.537146 0.677595 -0.238555
v -0.597870 0.737319 0.360488
v -0.687935 0.387906 -0.317282
v 0.307993 0.629994 -0.708526
v 0.392138 0.376910 -0.799418
v 0.786808 0.660657 -0.193439
v 0.569087 0.717728 -0.350482
v -0.235586 0.321738 -0.628414
v 0.790330 0.441289 -0.702884
v 0.550078 0.746054 -0.555033
v 0.526377 0.883547 0.639244
v 0.563810 0.367068 0.607581
v 0.783207 0.409222 0.362230
v 0.476622 0.961062 0.481932
v 0.446085 0.772883 0.743951
v 0.560451 0.797344 0.190808
v 0.223598 0.708220 0.330769
v 0.353634 0.752388 0.208392
v 0.129129 0.665676 0.514503
v 0.584685 0.641359 0.654925
v 0.190296 0.573184 0.725043
v 0.776778 0.733845 0.508101
v 0.758132 0.768556 0.193531
v 0.376087 0.560385 -0.758104
v 0.722858 0.642809 -0.561899
v 0.880367 0.465108 -0.259346
v 0.848429 0.476749 0.074718
v 0.773208 0.192044 0.006039
v 0.689898 -0.069624 -0.043956
v 0.577417 -0.293655 -0.068047
v 0.274124 -0.683253 0.135629
v 0.491416 -0.461259 -0.073011
v 0.101323 -0.759024 0.225329
v 0.117370 -0.849436 0.015605
v 0.256462 -0.539135 0.298123
v 0.045518 0.077567 -0.724153
v 0.047916 0.305806 -0.775856
v 0.043434 -0.176167 -0.656380
v 0.069105 -0.393692 -0.606662
v 0.133411 -0.635126 -0.538382
v 0.346745 -0.664988 -0.180512
v 0.298911 -0.733580 -0.394992
v 0.080231 0.595641 -0.717844
v 0.066205 0.485870 -0.752724
v 0.480739 -0.404733 0.050916
s 0
f 148 44 42
f 42 41 39
f 39 50 48
f 44 153 54
f 41 54 37
f 37 50 41
f 52 148 42
f 51 42 39
f 53 39 48
f 54 150 43
f 37 43 40
f 40 46 37
f 48 59 57
f 59 46 55
f 60 48 57
f 55 49 58
f 58 62 55
f 57 65 60
f 59 62 65
f 45 67 68
f 141 68 142
f 47 66 69
f 38 69 67
f 163 76 77
f 77 71 73
f 73 79 80
f 43 158 87
f 40 87 85
f 49 85 86
f 58 86 88
f 78 96 91
f 92 71 76
f 143 76 162
f 93 89 83
f 95 83 82
f 70 94 185
f 90 79 71
f 75 159 91
f 81 91 96
f 84 96 93
f 72 93 95
f 58 98 61
f 66 94 69
f 67 94 90
f 67 92 68
f 142 92 143
f 122 124 123
f 113 125 124
f 114 125 115
f 114 128 127
f 105 126 114
f 134 122 123
f 137 133 134
f 142 128 126
f 142 130 141
f 168 119 125
f 167 125 127
f 169 127 128
f 171 128 143
f 162 172 170
f 170 143 162
f 173 156 119
f 174 159 155
f 159 156 176
f 156 177 176
f 163 173 172
f 89 178 179
f 179 77 73
f 83 179 180
f 180 73 80
f 77 177 163
f 70 181 74
f 82 180 182
f 66 181 185
f 56 183 66
f 63 184 183
f 87 187 186
f 186 155 75
f 85 186 188
f 188 75 81
f 86 188 189
f 189 81 84
f 88 189 190
f 190 84 72
f 72 192 190
f 190 98 88
f 95 191 192
f 192 97 98
f 174 187 194
f 45 147 52
f 38 52 51
f 38 53 47
f 47 60 56
f 56 65 63
f 62 63 65
f 61 64 62
f 61 97 184
f 97 183 184
f 74 97 191
f 74 82 182
f 137 150 138
f 137 187 158
f 70 182 195
f 80 182 180
f 79 195 80
f 78 159 176
f 176 178 78
f 118 166 168
f 106 168 167
f 120 167 169
f 139 169 171
f 170 161 165
f 165 171 170
f 172 164 161
f 164 173 166
f 122 109 108
f 108 113 122
f 113 121 115
f 114 121 111
f 104 110 109
f 105 111 110
f 103 124 107
f 99 124 125
f 99 119 116
f 132 123 103
f 135 134 132
f 116 119 156
f 154 175 174
f 156 160 157
f 194 154 174
f 135 194 137
f 100 122 102
f 100 105 104
f 101 130 105
f 133 102 122
f 138 131 133
f 141 129 140
f 145 148 146
f 151 149 145
f 146 147 152
f 144 153 151
f 136 150 144
f 140 147 141
f 44 148 149
f 41 42 44
f 50 39 41
f 153 44 149
f 54 41 44
f 50 37 46
f 148 52 147
f 42 51 52
f 39 53 51
f 150 54 153
f 43 37 54
f 46 40 49
f 59 48 50
f 46 59 50
f 48 60 53
f 49 55 46
f 62 58 61
f 65 57 59
f 62 59 55
f 67 45 38
f 68 141 45
f 66 47 56
f 69 38 47
f 76 163 162
f 71 77 76
f 79 73 71
f 158 43 150
f 87 40 43
f 85 49 40
f 86 58 49
f 96 78 89
f 71 92 90
f 76 143 92
f 89 93 96
f 83 95 93
f 94 70 79
f 79 90 94
f 159 75 155
f 91 81 75
f 96 84 81
f 93 72 84
f 98 58 88
f 94 66 185
f 94 67 69
f 92 67 90
f 92 142 68
f 124 122 113
f 125 113 115
f 125 114 127
f 128 114 126
f 126 105 130
f 122 134 133
f 133 137 138
f 128 142 143
f 130 142 126
f 119 168 166
f 125 167 168
f 127 169 167
f 128 171 169
f 172 162 163
f 143 170 171
f 119 166 173
f 159 174 175
f 156 159 175
f 177 156 173
f 173 163 177
f 178 89 78
f 77 179 178
f 179 83 89
f 73 180 179
f 177 77 178
f 181 70 185
f 180 82 83
f 181 66 183
f 183 56 63
f 184 63 64
f 187 87 158
f 155 186 187
f 186 85 87
f 75 188 186
f 188 86 85
f 81 189 188
f 189 88 86
f 84 190 189
f 192 72 95
f 98 190 192
f 191 95 82
f 97 192 191
f 187 174 155
f 147 45 141
f 52 38 45
f 53 38 51
f 60 47 53
f 65 56 60
f 63 62 64
f 64 61 184
f 97 61 98
f 183 97 181
f 97 74 181
f 82 74 191
f 150 137 158
f 187 137 194
f 182 70 74
f 182 80 195
f 195 79 70
f 159 78 91
f 178 176 177
f 166 118 117
f 168 106 118
f 167 120 106
f 169 139 120
f 161 170 172
f 171 165 139
f 164 172 173
f 166 117 164
f 109 122 104
f 113 108 112
f 121 113 112
f 121 114 115
f 110 104 105
f 111 105 114
f 124 103 123
f 124 99 107
f 119 99 125
f 123 132 134
f 134 135 137
f 156 157 116
f 175 154 160
f 160 156 175
f 154 194 193
f 194 135 193
f 122 100 104
f 105 100 101
f 130 101 129
f 102 133 131
f 131 138 136
f 129 141 130
f 148 145 149
f 149 151 153
f 147 146 148
f 153 144 150
f 150 136 138
f 147 140 152
f 1 136 144
f 2 1 144
f 144 151 2
f 2 151 15
f 151 145 15
f 15 145 3
f 145 146 3
f 3 146 4
f 146 152 4
f 4 152 16
f 152 140 16
f 16 140 13
f 140 129 13
f 13 129 17
f 129 101 17
f 17 101 6
f 101 100 6
f 6 100 5
f 100 102 5
f 5 102 7
f 102 131 7
f 7 131 18
f 131 136 18
f 1 18 136
f 10 110 111
f 11 10 111
f 111 121 11
f 11 121 14
f 121 112 14
f 14 112 12
f 112 108 12
f 12 108 8
f 108 109 8
f 8 109 9
f 109 110 9
f 9 110 10
f 139 33 120
f 33 139 24
f 139 165 24
f 24 165 32
f 165 161 32
f 32 161 23
f 161 164 23
f 23 164 31
f 164 117 31
f 31 117 29
f 117 118 29
f 29 118 30
f 118 106 30
f 30 106 25
f 106 120 25
f 25 120 33
f 26 107 99
f 26 99 19
f 99 116 19
f 19 116 28
f 116 157 28
f 28 157 27
f 157 160 27
f 27 160 34
f 34 160 20
f 160 154 20
f 193 20 154
f 20 193 36
f 193 135 36
f 36 135 21
f 135 132 21
f 21 132 35
f 132 103 35
f 35 103 22
f 103 107 22
f 22 107 26
f 15 4 6
f 14 12 9
f 32 25 24
f 36 21 22
f 7 18 1
f 1 2 7
f 2 15 7
f 15 3 4
f 4 16 6
f 16 13 6
f 13 17 6
f 6 5 15
f 5 7 15
f 12 8 9
f 9 10 11
f 11 14 9
f 32 23 30
f 23 31 29
f 30 23 29
f 30 25 32
f 25 33 24
f 21 35 22
f 22 26 20
f 26 19 20
f 19 28 34
f 28 27 34
f 34 20 19
f 20 36 22
